<svg xmlns="http://www.w3.org/2000/svg" viewBox="0 0 50 50" x="0px" y="0px"><title>126. app menu</title><g data-name="Layer 126"><path d="M22.15517,4.69828V19.9569a2.20057,2.20057,0,0,1-2.19827,2.19827H4.69828A2.20057,2.20057,0,0,1,2.5,19.9569V4.69828A2.20057,2.20057,0,0,1,4.69828,2.5H19.9569A2.20057,2.20057,0,0,1,22.15517,4.69828ZM45.30172,2.5H30.0431a2.20057,2.20057,0,0,0-2.19827,2.19828V19.9569a2.20057,2.20057,0,0,0,2.19827,2.19827H45.30172A2.20057,2.20057,0,0,0,47.5,19.9569V4.69828A2.20057,2.20057,0,0,0,45.30172,2.5ZM19.9569,27.84483H4.69828A2.20057,2.20057,0,0,0,2.5,30.0431V45.30172A2.20057,2.20057,0,0,0,4.69828,47.5H19.9569a2.20057,2.20057,0,0,0,2.19827-2.19828V30.0431A2.20057,2.20057,0,0,0,19.9569,27.84483Zm17.71551,0A9.82759,9.82759,0,1,0,47.5,37.67241,9.83876,9.83876,0,0,0,37.67241,27.84483Z"></path></g></svg>